<?xml version="1.0" encoding="UTF-8" standalone="no"?>
<!-- Created with Inkscape (http://www.inkscape.org/) -->

<svg
   width="1024"
   height="1024"
   viewBox="0 0 270.93333 270.93333"
   version="1.1"
   id="svg1"
   inkscape:version="1.3 (0e150ed6c4, 2023-07-21)"
   sodipodi:docname="Strimaginus+Slogan.svg"
   xmlns:inkscape="http://www.inkscape.org/namespaces/inkscape"
   xmlns:sodipodi="http://sodipodi.sourceforge.net/DTD/sodipodi-0.dtd"
   xmlns="http://www.w3.org/2000/svg"
   xmlns:svg="http://www.w3.org/2000/svg">
  <sodipodi:namedview
     id="namedview1"
     pagecolor="#ffffff"
     bordercolor="#111111"
     borderopacity="1"
     inkscape:showpageshadow="0"
     inkscape:pageopacity="0"
     inkscape:pagecheckerboard="1"
     inkscape:deskcolor="#d1d1d1"
     inkscape:document-units="px"
     inkscape:zoom="0.2197789"
     inkscape:cx="404.95243"
     inkscape:cy="270.72663"
     inkscape:window-width="1920"
     inkscape:window-height="1017"
     inkscape:window-x="-8"
     inkscape:window-y="-8"
     inkscape:window-maximized="1"
     inkscape:current-layer="layer1"
     showgrid="false">
    <inkscape:grid
       id="grid1"
       units="px"
       originx="0"
       originy="0"
       spacingx="16.933333"
       spacingy="16.933333"
       empcolor="#0099e5"
       empopacity="0.30196078"
       color="#0099e5"
       opacity="0.14901961"
       empspacing="1"
       dotted="false"
       gridanglex="30"
       gridanglez="30"
       visible="false"
       snapvisiblegridlinesonly="true"
       enabled="true" />
  </sodipodi:namedview>
  <defs
     id="defs1" />
  <g
     inkscape:label="Layer 1"
     inkscape:groupmode="layer"
     id="layer1">
    <path
       id="path6"
       style="opacity:1;vector-effect:none;fill:#ffffff;fill-rule:evenodd;stroke:none;stroke-width:0.529167;stroke-linecap:round;stroke-linejoin:round;paint-order:fill markers stroke;stop-color:#000000;stop-opacity:1"
       d="m 203.2,203.19998 c 0,-37.40809 -30.32524,-67.73333 -67.73333,-67.73333 -37.40808,1e-5 -67.73333,-30.32523 -67.73333,-67.73332 C 67.73334,30.325245 98.05859,0 135.46667,0 c 74.81617,0 135.46666,60.65049 135.46666,135.46666 0,74.81617 -60.65049,135.46666 -135.46666,135.46665 37.40809,0 67.73333,-30.32524 67.73333,-67.73333 z"
       sodipodi:nodetypes="ccccccc"
       inkscape:label="Light" />
    <path
       id="path10"
       style="opacity:1;vector-effect:none;fill:#0099ff;fill-opacity:1;fill-rule:evenodd;stroke:none;stroke-width:0.529167;stroke-linecap:round;stroke-linejoin:round;paint-order:fill markers stroke;stop-color:#000000;stop-opacity:1"
       d="m 202.93541,169.33333 c 0,-37.40809 -30.32524,-67.73333 -67.60104,-67.73334 -18.57174,0 -33.73437,-15.162617 -33.73437,-33.86666 0,-18.704045 15.16263,-33.866668 33.86667,-33.866667 56.11213,-2e-6 101.6,45.487867 101.6,101.599997 0,56.11213 -45.48787,101.6 -101.7323,101.6 37.2758,0 67.60104,-30.32524 67.60104,-67.73333 z"
       sodipodi:nodetypes="ccccccc"
       inkscape:label="Light Eye" />
    <path
       id="circle5"
       style="opacity:1;vector-effect:none;fill:#000000;fill-rule:evenodd;stroke:none;stroke-width:0.529166;stroke-linecap:round;stroke-linejoin:round;paint-order:fill markers stroke;stop-color:#000000;stop-opacity:1"
       d="M 9.55e-6,135.46666 C 9.55e-6,60.65049 60.6505,0 135.46667,0 98.05859,0 67.73334,30.325245 67.73334,67.73333 c 0,37.40809 30.32525,67.73333 67.73333,67.73332 37.40809,0 67.73333,30.32524 67.73333,67.73333 0,37.40809 -30.32524,67.73333 -67.73333,67.73333 C 60.6505,270.93332 9.5500001e-6,210.28283 9.55e-6,135.46666 Z"
       sodipodi:nodetypes="ccccccc"
       inkscape:label="Void"
       inkscape:export-filename="circle5.png"
       inkscape:export-xdpi="96"
       inkscape:export-ydpi="96" />
    <path
       id="circle12"
       style="opacity:1;vector-effect:none;fill:#ff0000;fill-rule:evenodd;stroke:none;stroke-width:0.529167;stroke-linecap:round;stroke-linejoin:round;paint-order:fill markers stroke;stop-color:#000000;stop-opacity:1"
       d="m 33.86667,135.46666 c 0,-56.11213 45.48787,-101.599998 101.60803,-101.599999 -37.40005,-2e-6 -67.72529,30.325243 -67.72529,67.733329 0,37.40809 30.32524,67.73333 67.72529,67.73333 18.69601,0 33.85863,15.16262 33.85863,33.86666 0,18.70404 -15.16262,33.86667 -33.86666,33.86667 -56.11213,1e-5 -101.6,-45.48786 -101.6,-101.59999 z"
       sodipodi:nodetypes="ccccccc"
       inkscape:label="Void Eye" />
    <path
       id="path16"
       style="opacity:1;vector-effect:none;fill:#ffffff;fill-rule:evenodd;stroke:none;stroke-width:0.529167;stroke-linecap:round;stroke-linejoin:round;paint-order:fill markers stroke;stop-color:#000000;stop-opacity:1"
       d="m 135.46667,101.59999 c -18.70404,0 -33.86667,-15.162617 -33.86667,-33.86666 0,-18.704045 15.16263,-33.866668 33.86667,-33.866665 V 0 C 98.05859,0 67.73334,30.325245 67.73334,67.73333 c 0,37.40809 30.32525,67.73333 67.73333,67.73333 z"
       sodipodi:nodetypes="ccccccc"
       inkscape:label="Corrector" />
  </g>
</svg>
